<?xml version="1.0" encoding="UTF-8" standalone="no"?>
<!-- Created with Inkscape (http://www.inkscape.org/) -->

<svg
   width="47.944176mm"
   height="28.207771mm"
   viewBox="0 0 47.944176 28.207772"
   version="1.1"
   id="svg5"
   inkscape:version="1.1.2 (0a00cf5339, 2022-02-04)"
   sodipodi:docname="logo.svg"
   xmlns:inkscape="http://www.inkscape.org/namespaces/inkscape"
   xmlns:sodipodi="http://sodipodi.sourceforge.net/DTD/sodipodi-0.dtd"
   xmlns="http://www.w3.org/2000/svg"
   xmlns:svg="http://www.w3.org/2000/svg">
  <sodipodi:namedview
     id="namedview7"
     pagecolor="#ffffff"
     bordercolor="#666666"
     borderopacity="1.0"
     inkscape:pageshadow="2"
     inkscape:pageopacity="0.0"
     inkscape:pagecheckerboard="0"
     inkscape:document-units="mm"
     showgrid="false"
     fit-margin-top="0"
     fit-margin-left="0"
     fit-margin-right="0"
     fit-margin-bottom="0"
     inkscape:zoom="5.1534363"
     inkscape:cx="119.43487"
     inkscape:cy="52.101158"
     inkscape:window-width="1860"
     inkscape:window-height="1016"
     inkscape:window-x="381"
     inkscape:window-y="1467"
     inkscape:window-maximized="1"
     inkscape:current-layer="layer1" />
  <defs
     id="defs2" />
  <g
     inkscape:label="Layer 1"
     inkscape:groupmode="layer"
     id="layer1"
     transform="translate(-60.514096,-82.904087)">
    <g
       aria-label="RFC"
       id="text6729"
       style="font-style:italic;font-weight:500;font-size:10px;line-height:1;font-family:Ubuntu;-inkscape-font-specification:'Ubuntu Medium Italic';stroke-width:0.264583"
       transform="matrix(2.6517831,0,0,2.6517831,-99.956182,-136.93961)">
      <path
         d="m 64.024104,82.994102 c 0.826667,0 1.453333,0.173333 1.88,0.52 0.433333,0.34 0.65,0.793333 0.65,1.36 0,0.253333 -0.03667,0.496667 -0.11,0.73 -0.06667,0.226667 -0.176667,0.44 -0.33,0.64 -0.146667,0.193333 -0.34,0.366667 -0.58,0.52 -0.233333,0.153333 -0.516667,0.28 -0.85,0.38 0.08667,0.153333 0.18,0.34 0.28,0.56 0.1,0.213333 0.203333,0.446667 0.31,0.7 0.106667,0.246667 0.21,0.506667 0.31,0.78 0.1,0.273333 1.150089,3.169231 1.230089,3.435898 l -1.019643,-4.89e-4 c -0.08,-0.24 -1.433779,-3.108738 -1.520446,-3.355405 -0.08667,-0.246667 -0.176667,-0.483333 -0.27,-0.71 -0.09333,-0.233333 -0.19,-0.45 -0.29,-0.65 -0.09333,-0.206667 -0.186667,-0.39 -0.28,-0.55 -0.06,0.0067 -0.133333,0.01 -0.22,0.01 h -0.23 -0.58 l -0.63,2.63 h -1.26 l 1.63,-6.83 c 0.32,-0.06667 0.643333,-0.11 0.97,-0.13 0.333333,-0.02667 0.636667,-0.04 0.91,-0.04 z m 1.25,2.02 c 0,-0.366667 -0.133333,-0.616667 -0.4,-0.75 -0.266667,-0.14 -0.623333,-0.21 -1.07,-0.21 -0.09333,0 -0.193333,0.0033 -0.3,0.01 -0.106667,0.0067 -0.213333,0.01667 -0.32,0.03 l -0.54,2.26 h 0.56 c 0.3,0 0.576667,-0.02333 0.83,-0.07 0.253333,-0.05333 0.47,-0.133333 0.65,-0.24 0.186667,-0.106667 0.33,-0.243333 0.43,-0.41 0.106667,-0.173333 0.16,-0.38 0.16,-0.62 z"
         id="path26337"
         sodipodi:nodetypes="scsccccccsccscccsccccccsscssccscccsc" />
      <path
         d="m 66.754091,89.994102 1.66,-6.93 h 4.27 l -0.25,1.05 h -3.02 l -0.43,1.8 h 2.67 l -0.25,1.04 h -2.66 l -0.73,3.04 z"
         id="path26339" />
      <path
         d="m 77.374081,89.694102 q -0.33,0.17 -0.84,0.31 -0.51,0.14 -1.24,0.14 -0.64,0 -1.14,-0.19 -0.5,-0.2 -0.85,-0.57 -0.35,-0.37 -0.54,-0.89 -0.18,-0.52 -0.18,-1.17 0,-0.84 0.28,-1.63 0.28,-0.8 0.81,-1.42 0.53,-0.62 1.29,-0.99 0.76,-0.38 1.72,-0.38 0.63,0 1.09,0.14 0.47,0.14 0.82,0.34 l -0.48,1.01 q -0.32,-0.19 -0.69,-0.29 -0.36,-0.11 -0.82,-0.11 -0.63,0 -1.13,0.28 -0.5,0.28 -0.86,0.74 -0.35,0.45 -0.54,1.03 -0.18,0.58 -0.18,1.18 0,0.93 0.4,1.38 0.41,0.44 1.19,0.44 0.6,0 1.02,-0.13 0.42,-0.14 0.72,-0.28 z"
         id="path26341" />
    </g>
    <rect
       style="fill:#000000;fill-opacity:1;stroke:#c45ae0;stroke-width:0;stroke-linecap:round;stroke-linejoin:round"
       id="rect36845"
       width="7.4977965"
       height="1.286435"
       x="74.516701"
       y="107.38086" />
    <rect
       style="fill:#000000;fill-opacity:1;stroke:#c45ae0;stroke-width:0;stroke-linecap:round;stroke-linejoin:round"
       id="rect36845-7"
       width="5.0392828"
       height="1.286435"
       x="103.62801"
       y="-83.300934"
       transform="rotate(90)" />
    <rect
       style="fill:#000000;fill-opacity:1;stroke:#c45ae0;stroke-width:0;stroke-linecap:round;stroke-linejoin:round"
       id="rect36845-7-2"
       width="5.0392828"
       height="1.286435"
       x="-87.053795"
       y="-104.91445"
       transform="scale(-1)" />
    <rect
       style="fill:#000000;fill-opacity:1;stroke:#c45ae0;stroke-width:0;stroke-linecap:round;stroke-linejoin:round"
       id="rect36845-7-2-6"
       width="5.0392828"
       height="1.286435"
       x="-108.6673"
       y="85.767342"
       transform="rotate(-90)" />
    <rect
       style="fill:#000000;fill-opacity:1;stroke:#c45ae0;stroke-width:0;stroke-linecap:round;stroke-linejoin:round"
       id="rect36845-7-4"
       width="5.0392828"
       height="1.286435"
       x="-108.6673"
       y="-87.053795"
       transform="matrix(0,-1,-1,0,0,0)" />
    <rect
       style="fill:#000000;fill-opacity:1;stroke:#c45ae0;stroke-width:0;stroke-linecap:round;stroke-linejoin:round"
       id="rect36845-7-2-5"
       width="5.0392828"
       height="1.286435"
       x="-90.80661"
       y="107.38086"
       transform="scale(-1,1)" />
    <rect
       style="fill:#000000;fill-opacity:1;stroke:#c45ae0;stroke-width:0;stroke-linecap:round;stroke-linejoin:round"
       id="rect36845-7-2-6-2"
       width="5.0392828"
       height="1.286435"
       x="103.62801"
       y="89.520164"
       transform="matrix(0,1,1,0,0,0)" />
    <rect
       style="fill:#000000;fill-opacity:1;stroke:#c45ae0;stroke-width:0;stroke-linecap:round;stroke-linejoin:round"
       id="rect36845-7-0"
       width="5.0392828"
       height="1.286435"
       x="103.62801"
       y="-90.80661"
       transform="rotate(90)" />
    <rect
       style="fill:#000000;fill-opacity:1;stroke:#c45ae0;stroke-width:0;stroke-linecap:round;stroke-linejoin:round"
       id="rect36845-7-2-2"
       width="5.0392828"
       height="1.286435"
       x="-94.559471"
       y="-104.91445"
       transform="scale(-1)" />
    <rect
       style="fill:#000000;fill-opacity:1;stroke:#c45ae0;stroke-width:0;stroke-linecap:round;stroke-linejoin:round"
       id="rect36845-7-4-9"
       width="5.0392828"
       height="1.286435"
       x="-108.6673"
       y="-94.559471"
       transform="matrix(0,-1,-1,0,0,0)" />
    <rect
       style="fill:#000000;fill-opacity:1;stroke:#c45ae0;stroke-width:0;stroke-linecap:round;stroke-linejoin:round"
       id="rect36845-7-2-5-0"
       width="5.0392828"
       height="1.286435"
       x="-98.312309"
       y="107.38086"
       transform="scale(-1,1)" />
    <rect
       style="fill:#000000;fill-opacity:1;stroke:#c45ae0;stroke-width:0;stroke-linecap:round;stroke-linejoin:round"
       id="rect36845-7-2-6-2-9"
       width="5.0392828"
       height="1.286435"
       x="103.62801"
       y="97.025864"
       transform="matrix(0,1,1,0,0,0)" />
    <rect
       style="fill:#000000;fill-opacity:1;stroke:#c45ae0;stroke-width:0;stroke-linecap:round;stroke-linejoin:round"
       id="rect36845-7-9"
       width="5.0392828"
       height="1.286435"
       x="103.62801"
       y="-98.312309"
       transform="rotate(90)" />
    <rect
       style="fill:#000000;fill-opacity:1;stroke:#c45ae0;stroke-width:0;stroke-linecap:round;stroke-linejoin:round"
       id="rect36845-7-2-4"
       width="5.0392828"
       height="1.286435"
       x="-102.06515"
       y="-104.91445"
       transform="scale(-1)" />
    <rect
       style="fill:#000000;fill-opacity:1;stroke:#c45ae0;stroke-width:0;stroke-linecap:round;stroke-linejoin:round"
       id="rect36845-7-4-5"
       width="5.0392828"
       height="1.286435"
       x="-108.6673"
       y="-102.06515"
       transform="matrix(0,-1,-1,0,0,0)" />
    <path
       id="rect36845-7-2-5-1"
       style="stroke:#c45ae0;stroke-width:0;stroke-linecap:round;stroke-linejoin:round"
       d="m 105.81799,107.38085 h -5.03929 v 1.28644 h 5.03929 z" />
    <path
       style="fill:none;stroke:#000000;stroke-width:1.23308;stroke-linecap:butt;stroke-linejoin:miter;stroke-miterlimit:4;stroke-dasharray:none;stroke-opacity:1"
       d="m 103.64691,105.3724 2.65104,2.65177 -2.65104,2.65179"
       id="path40943"
       sodipodi:nodetypes="ccc" />
  </g>
</svg>
